HIERARCHY
ROOT Hips
{
	OFFSET 0.00 0.00 0.00
	CHANNELS 6 Xposition Yposition Zposition Xrotation Yrotation Zrotation
	JOINT Spine
	{
		OFFSET 0.00000 1.15266 1.72900
		CHANNELS 3 Xrotation Yrotation Zrotation
		JOINT Spine1
		{
			OFFSET 0.00000 0.40032 2.27031
			CHANNELS 3 Xrotation Yrotation Zrotation
			JOINT Spine2
			{
				OFFSET 0.00000 0.20092 2.29656
				CHANNELS 3 Xrotation Yrotation Zrotation
				JOINT Spine3
				{
					OFFSET 0.00000 0.00000 2.30533
					CHANNELS 3 Xrotation Yrotation Zrotation
					JOINT Neck
					{
						OFFSET 0.00000 -0.86449 6.05149
						CHANNELS 3 Xrotation Yrotation Zrotation
						JOINT Head
						{
							OFFSET 0.00000 -0.55043 3.12167
							CHANNELS 3 Xrotation Yrotation Zrotation
							End Site
							{
								OFFSET 0.00000 0.00000 3.73175
							}
						}
					}
					JOINT RightShoulder
					{
						OFFSET -0.78828 -1.31380 4.25672
						CHANNELS 3 Xrotation Yrotation Zrotation
						JOINT RightArm
						{
							OFFSET -3.91513 0.00000 0.00000
							CHANNELS 3 Xrotation Yrotation Zrotation
							JOINT RightForeArm
							{
								OFFSET -6.91491 0.00000 0.00000
								CHANNELS 3 Xrotation Yrotation Zrotation
								JOINT RightHand
								{
									OFFSET -6.09622 0.00000 0.00000
									CHANNELS 3 Xrotation Yrotation Zrotation
									JOINT RightHandEnd
									{
										OFFSET -1.74995 0.00000 0.00000
										CHANNELS 3 Xrotation Yrotation Zrotation
										End Site
										{
											OFFSET -1.74995 0.00000 0.00000
										}
									}
									JOINT RightHandThumb1
									{
										OFFSET -0.69998 -1.16663 -0.46665
										CHANNELS 3 Yrotation Xrotation Zrotation
										End Site
										{
											OFFSET -1.69032 -0.45292 0.00000
										}
									}
								}
							}
						}
					}
					JOINT LeftShoulder
					{
						OFFSET 0.78828 -1.31380 4.25672
						CHANNELS 3 Xrotation Yrotation Zrotation
						JOINT LeftArm
						{
							OFFSET 3.91513 0.00000 0.00000
							CHANNELS 3 Xrotation Yrotation Zrotation
							JOINT LeftForeArm
							{
								OFFSET 6.91491 0.00000 0.00000
								CHANNELS 3 Xrotation Yrotation Zrotation
								JOINT LeftHand
								{
									OFFSET 6.09622 0.00000 0.00000
									CHANNELS 3 Xrotation Yrotation Zrotation
									JOINT LeftHandEnd
									{
										OFFSET 1.74995 0.00000 0.00000
										CHANNELS 3 Xrotation Yrotation Zrotation
										End Site
										{
											OFFSET 1.74995 0.00000 0.00000
										}
									}
									JOINT LeftHandThumb1
									{
										OFFSET 0.69998 -1.16663 -0.46665
										CHANNELS 3 Yrotation Xrotation Zrotation
										End Site
										{
											OFFSET 1.69032 -0.45292 0.00000
										}
									}
								}
							}
						}
					}
				}
			}
		}
	}
	JOINT RightUpLeg
	{
		OFFSET -2.33857 0.00000 -0.68318
		CHANNELS 3 Xrotation Yrotation Zrotation
		JOINT RightLeg
		{
			OFFSET 0.00000 0.00000 -10.74496
			CHANNELS 3 Xrotation Yrotation Zrotation
			JOINT RightFoot
			{
				OFFSET 0.00000 0.00000 -10.93085
				CHANNELS 3 Xrotation Yrotation Zrotation
				JOINT RightToeBase
				{
					OFFSET 0.00000 -4.08727 -1.48765
					CHANNELS 3 Xrotation Yrotation Zrotation
					End Site
					{
						OFFSET 0.00000 -1.89187 -0.00000
					}
				}
			}
		}
	}
	JOINT LeftUpLeg
	{
		OFFSET 2.33857 0.00000 -0.68318
		CHANNELS 3 Xrotation Yrotation Zrotation
		JOINT LeftLeg
		{
			OFFSET 0.00000 0.00000 -10.74496
			CHANNELS 3 Xrotation Yrotation Zrotation
			JOINT LeftFoot
			{
				OFFSET 0.00000 0.00000 -10.93085
				CHANNELS 3 Xrotation Yrotation Zrotation
				JOINT LeftToeBase
				{
					OFFSET 0.00000 -4.08727 -1.48765
					CHANNELS 3 Xrotation Yrotation Zrotation
					End Site
					{
						OFFSET 0.00000 -1.89187 -0.00000
					}
				}
			}
		}
	}
}
MOTION
Frames: 15
Frame Time:	0.05
 -5.0689 7.1083 24.6657 -7.8016 1.1076 -176.7864 -1.0687 2.2104 0.1812 -0.9882 2.6297 0.7259 5.3706 3.8336 6.0525 0.3038 0.4162 1.1816 -7.1498 3.7242 -4.1220 9.3772 -6.5906 -5.5878 -3.3496 2.1877 2.7224 -61.0531 -39.6770 -19.6958 -0.0000 0.0001 80.0726 -95.1587 -30.1523 3.9454 -0.0000 0.0000 0.0000 0.0000 -0.0000 -0.0000 -5.2468 -10.3734 -4.9939 -78.9730 31.6471 10.8622 -0.0000 -0.0001 -79.5894 -52.0780 21.7869 -13.5971 -0.0000 0.0000 0.0000 -0.0000 0.0000 0.0000 -3.7222 10.6287 -11.2310 22.6615 0.0000 0.0000 -13.5943 -9.8492 -17.4777 4.6802 0.0000 0.0000 -14.3275 -15.4669 5.4610 16.2645 0.0000 0.0000 2.2538 14.1338 -22.1749 -5.5301 0.0000 -0.0000
 -4.9275 7.6810 23.8830 -3.1386 -2.0413 -168.6419 -0.1538 1.7385 0.2104 -1.0568 1.5494 0.4446 7.3855 3.4422 2.9055 0.6507 -0.4474 0.3897 -3.6256 -4.2164 -3.1325 14.5272 -7.1917 -4.0251 1.6676 -10.4225 2.3979 -13.7536 -30.4271 5.1526 -0.0000 0.0001 71.5995 -20.4369 -9.5664 -4.0138 0.0000 -0.0000 0.0000 -0.0000 0.0000 0.0000 0.2170 7.0122 0.1572 -23.8395 36.7495 -22.6935 -0.0000 -0.0001 -72.4195 -48.3208 6.6561 0.6870 0.0000 -0.0000 0.0000 0.0000 0.0000 0.0000 3.2124 10.4423 0.4630 26.5229 0.0000 0.0000 -15.5645 -15.2606 -3.8401 -1.3376 0.0000 -0.0000 -21.1307 -20.0413 14.4006 39.3571 0.0000 0.0000 -9.9912 11.4754 -13.6222 -0.7043 0.0000 -0.0000
 -5.2504 8.1558 22.9214 1.6662 -1.8756 -168.9435 2.1174 1.1331 0.1024 -0.5120 0.8659 0.3567 10.8990 2.0061 3.1987 1.2199 -1.7346 1.1037 -11.2796 -5.0433 -7.7452 1.5683 -2.7842 -8.1277 4.4401 -15.0331 1.9118 0.1318 -20.1989 12.1168 -0.0000 0.0001 77.4911 33.5021 -34.1320 -7.2382 0.0000 -0.0000 0.0000 -0.0000 0.0000 0.0000 5.8132 15.7817 -2.0809 9.3096 15.2694 -33.9784 -0.0000 -0.0001 -66.2967 30.0053 29.9747 6.8885 -0.0000 0.0000 -0.0000 0.0000 0.0000 0.0000 2.0570 14.2979 3.1935 40.4981 0.0000 0.0000 -16.4553 -19.0336 11.8828 -9.7715 0.0000 -0.0000 -21.4880 -22.0283 11.7803 52.1863 0.0000 0.0000 -18.3494 10.8675 -11.7935 1.5552 0.0000 0.0000
 -5.7648 8.7557 23.8783 -0.0245 -2.5007 179.9326 -0.9116 -1.2637 0.1551 -1.7358 -0.2723 0.1557 13.1233 1.5835 3.8418 2.7395 -1.6044 1.0573 -12.9863 -5.6823 -9.1983 -8.9349 -0.5023 -11.5367 1.9062 -12.6790 1.7907 -9.4077 -21.6990 9.5530 -0.0000 0.0001 89.6698 -0.8434 -19.2692 3.1906 -0.0000 0.0000 -0.0000 -0.0000 -0.0000 0.0000 4.9136 17.0716 -1.1373 6.1948 20.3594 -17.1917 -0.0000 -0.0001 -77.2676 11.2232 19.4974 -1.3328 0.0000 0.0000 0.0000 -0.0000 -0.0000 0.0000 0.0848 16.2812 8.4842 32.0053 0.0000 0.0000 -2.0497 -17.6127 18.8014 -9.2367 0.0000 -0.0000 -13.5760 -20.2814 16.4780 44.6861 0.0000 0.0000 -13.6587 12.0383 -3.4713 -0.7390 0.0000 -0.0000
 -5.8047 9.2803 25.1937 -0.9010 -1.9592 164.8254 -2.4631 -1.3744 0.5247 -1.8944 -1.4708 0.2319 10.7722 1.6093 8.3922 3.0303 -1.7508 2.6714 -2.9761 -9.5456 -9.3083 -0.3051 -1.3851 -15.0305 -3.5376 -4.6894 1.6748 -21.2645 -13.1180 13.8097 -0.0000 0.0001 94.3640 6.0426 -24.7102 6.4683 0.0000 0.0000 0.0000 -0.0000 -0.0000 -0.0000 0.1875 10.9600 -0.7064 -16.1964 12.0721 -8.8428 -0.0001 -0.0001 -83.9692 10.6886 15.1684 -4.5054 -0.0000 0.0000 -0.0000 -0.0000 -0.0000 0.0000 -8.9923 16.4199 4.2978 36.4423 0.0000 0.0000 4.5505 -9.6410 15.2559 1.2128 0.0000 0.0000 -7.5115 -17.7878 9.0118 36.7974 0.0000 0.0000 4.6306 10.0982 -5.9823 -7.0423 0.0000 -0.0000
 -5.4739 9.7185 25.0609 -0.0506 -0.3068 149.7341 -1.4156 -0.2818 0.5989 -1.0422 -0.7832 0.6594 3.3451 2.1476 14.2897 2.3544 -1.5276 4.1694 16.8813 -15.1773 -7.0301 5.8441 -3.7586 -19.6139 -7.7382 7.1308 -1.1363 -22.5765 -7.7766 26.6203 -0.0000 0.0001 76.9636 8.5611 -2.6285 -0.0048 0.0000 -0.0000 0.0000 -0.0000 -0.0000 0.0000 -6.1766 -2.6577 -4.9236 -31.4986 3.0360 -16.3858 -0.0000 -0.0001 -60.8306 -1.7682 -12.2143 -0.6889 0.0000 0.0000 -0.0000 -0.0000 0.0000 0.0000 -15.6745 14.3584 1.5100 36.1480 0.0000 0.0000 -1.1674 -4.3610 -1.4722 3.6485 0.0000 0.0000 -7.2792 -20.0644 0.7380 43.6263 0.0000 0.0000 6.7637 7.8803 -16.0101 -1.8584 0.0000 -0.0000
 -5.4426 9.9188 23.5943 0.7922 1.5810 143.9324 2.5650 2.4543 -0.1893 -0.0025 0.9874 0.6347 0.2343 3.0886 8.9462 1.0668 -1.4568 1.8779 14.9299 -12.0992 -5.1397 0.2451 -3.3719 -17.9495 -2.2815 11.7132 0.5737 -40.2589 5.6279 33.2019 -0.0000 0.0001 60.1150 28.8540 5.5519 -7.0839 -0.0000 0.0000 0.0000 0.0000 0.0000 0.0000 -14.8947 -17.6278 -11.7148 -60.9733 0.3091 -16.6915 -0.0000 -0.0000 -40.6003 -6.9312 -36.1839 -4.7825 -0.0000 -0.0000 -0.0000 -0.0000 0.0000 -0.0000 -21.6232 16.5808 8.3650 43.0865 0.0000 0.0000 -10.1186 -17.0787 -0.9719 3.6119 0.0000 0.0000 -6.7560 -26.4477 0.9057 30.4176 0.0000 0.0000 -1.2705 9.0497 -6.4745 -2.8129 0.0000 -0.0000
 -6.0488 10.5607 21.7449 2.9790 0.8288 139.0730 9.3465 2.0220 -1.1797 2.3910 1.3004 0.3466 -1.1481 2.6336 4.2607 -0.8194 -0.5813 0.9275 2.9655 -7.0379 -4.7096 -9.7281 -0.4143 -10.8967 -10.1183 22.8809 5.8129 -59.7158 -6.3286 13.9759 -0.0000 0.0001 65.4637 25.0992 16.5527 -7.1593 -0.0000 -0.0000 -0.0000 -0.0000 -0.0000 -0.0000 -22.1619 -29.4441 -18.8727 -68.6545 -2.1048 -0.7992 -0.0000 -0.0000 -53.6031 -11.1023 -71.5885 -16.0493 0.0000 0.0000 -0.0000 0.0000 0.0000 0.0000 -31.3491 19.1336 16.9045 60.4558 0.0000 0.0000 -16.1299 -22.8183 5.4478 2.2690 0.0000 0.0000 -5.3603 -29.8409 -7.6863 26.5851 0.0000 0.0000 -2.3523 22.5458 -8.9892 -3.2914 0.0000 -0.0000
 -6.3211 11.1784 21.7443 3.6580 0.0069 132.4312 8.6303 0.4611 -0.4698 2.7202 -0.7998 0.3492 2.3364 2.8796 8.8293 -0.4285 -0.2315 1.2614 -4.4550 0.1664 -3.6445 -5.5878 -1.5971 -8.5138 -21.2617 22.0827 9.8057 -73.7279 -13.7055 -17.8843 -0.0000 0.0001 89.1193 18.8343 46.5555 17.1560 -0.0000 -0.0000 0.0000 -0.0000 0.0000 -0.0000 -14.6392 -9.7650 -8.8039 -53.9756 12.0601 -4.9322 -0.0000 -0.0001 -69.0309 5.6890 -48.7068 -20.5193 -0.0000 0.0000 -0.0000 -0.0000 -0.0000 0.0000 -30.6945 16.9969 24.4583 57.4594 0.0000 0.0000 -15.3223 -24.5213 5.6567 1.8842 0.0000 0.0000 -1.1439 -30.2524 0.5423 30.8163 0.0000 0.0000 -1.6790 25.3700 -15.1440 -8.0209 0.0000 -0.0000
 -5.7038 11.3181 23.8203 0.6662 0.3405 143.6525 1.6508 -1.1043 -0.6664 -0.1231 -0.1977 -0.1119 5.4334 0.6330 0.8493 1.7592 -0.2914 0.0041 -0.2234 0.3847 -3.0343 9.0511 -5.9829 -3.6209 -11.9258 -6.7055 6.1987 -85.8959 -10.2959 -33.6375 -0.0000 0.0001 95.3797 7.9179 54.0348 11.9514 -0.0000 -0.0000 -0.0000 -0.0000 0.0000 -0.0000 -6.8508 8.6543 -7.6985 -23.7640 27.4841 -19.8228 -0.0000 -0.0000 -28.6904 17.3301 -37.3747 8.1363 0.0000 0.0000 -0.0000 0.0000 0.0000 0.0000 -21.9407 16.6038 12.0661 46.8013 0.0000 0.0000 -2.7108 -17.6878 -1.3832 0.8859 0.0000 0.0000 -7.2420 -28.5435 0.1056 23.3213 0.0000 0.0000 12.7039 11.1410 -10.4605 -2.1666 0.0000 -0.0000
 -4.7239 11.5999 24.7437 0.5951 -4.4216 157.2238 0.7884 0.1515 -0.7729 -0.6075 1.3233 -0.5807 5.6025 -4.8233 -10.5171 1.8032 -1.6040 -1.1305 -1.1056 -1.4837 -3.9820 16.0274 -5.5979 0.7507 -9.5210 -19.8835 -2.9625 -77.6727 -20.7578 -48.1590 -0.0000 0.0001 81.7295 -55.7219 36.3215 -8.9544 0.0000 0.0000 0.0000 -0.0000 -0.0000 0.0000 -1.6597 14.0990 -9.6219 -38.3299 44.0989 10.4917 -0.0000 -0.0000 -20.0221 0.3476 -12.6981 14.9112 0.0000 -0.0000 -0.0000 -0.0000 0.0000 0.0000 -8.3497 10.5604 4.1346 38.1244 0.0000 0.0000 0.6652 -14.6518 -9.1215 1.6842 0.0000 0.0000 -22.3432 -30.5974 10.4117 51.6741 0.0000 0.0000 -0.1550 5.1693 -11.9624 -4.4201 0.0000 -0.0000
 -4.0904 11.9238 23.9008 0.7345 -7.9972 162.8309 1.4195 -0.5745 -0.8765 -0.5677 1.0928 -0.6119 6.0189 -6.3243 -9.7034 1.0243 -3.2976 -0.6407 -8.1383 -1.8503 -4.4551 1.1831 -4.0814 -1.7729 -6.4505 -20.6210 -2.6281 -70.3370 -27.8656 -55.2029 -0.0000 0.0001 90.3660 -70.4629 53.4101 -3.1268 0.0000 0.0000 -0.0000 0.0000 -0.0000 0.0000 5.9349 19.4845 -4.5209 -28.5360 49.2511 7.4071 -0.0000 -0.0000 -40.9089 14.3931 -11.1631 14.6371 0.0000 0.0000 0.0000 -0.0000 0.0000 0.0000 -4.3947 5.9574 8.1626 40.8976 0.0000 0.0000 -7.1784 -14.2226 -8.8418 -0.4787 0.0000 -0.0000 -20.4158 -29.1311 20.9853 55.4519 0.0000 0.0000 -6.8349 7.9888 -14.6294 -3.9042 0.0000 -0.0000
 -3.7879 11.7985 23.4480 2.1829 -8.4890 168.3045 1.2688 -0.1308 -0.8653 -0.7567 1.4039 -0.3981 10.3433 -6.9384 -7.8709 1.4548 -3.5207 -0.3373 -13.2072 -2.5531 -5.9309 -12.7696 -4.0285 -4.3925 -10.5638 -19.4763 -0.7597 -70.0501 -33.8902 -47.5620 -0.0001 0.0001 108.1807 -63.1005 41.8624 1.4910 -0.0000 -0.0000 -0.0000 -0.0000 -0.0000 0.0000 3.6028 15.5484 -5.1911 -35.6016 47.8497 12.5996 -0.0000 -0.0001 -65.1863 23.6841 -18.8666 21.1251 -0.0000 -0.0000 -0.0000 0.0000 -0.0000 0.0000 -3.6877 6.1145 4.6838 44.9936 0.0000 0.0000 -9.8756 -19.7073 -6.2437 -5.8881 0.0000 -0.0000 -17.1308 -26.7502 20.6121 49.4134 0.0000 0.0000 -18.8548 6.3705 -12.9855 2.7342 0.0000 0.0000
 -3.7185 11.3668 25.1801 0.0987 -4.1955 162.0839 -0.4881 0.0636 -0.2991 -1.3894 0.2513 -0.1151 9.2867 -1.6091 -1.6852 1.2713 -1.3162 0.1530 -8.3636 -4.5321 -5.1797 -3.2901 -4.4618 -6.3539 -14.5325 -13.0818 4.3859 -60.6104 -50.7633 -35.0463 -0.0001 0.0001 110.7964 -33.8583 35.4539 18.5474 -0.0000 0.0000 0.0000 -0.0000 -0.0000 0.0000 -4.3803 9.5546 -3.3576 -39.2443 53.7079 13.4492 -0.0001 -0.0001 -86.2962 28.5194 -34.5863 20.6064 0.0000 -0.0000 0.0000 -0.0000 -0.0000 0.0000 -9.8065 6.2829 9.3627 41.1216 0.0000 0.0000 4.5223 -9.7783 -9.9723 0.9662 0.0000 0.0000 -9.7782 -20.7639 30.4133 30.0237 0.0000 0.0000 4.2804 7.7120 -13.6124 -1.9979 0.0000 -0.0000
 -3.7012 10.6230 26.1980 -5.1947 -1.3617 156.3063 -1.9458 -2.0070 -0.4464 -0.9774 -1.4938 -0.1879 2.4869 1.1128 3.2021 -0.1912 1.6525 -0.2434 2.9483 -1.6077 -1.8319 10.8881 -5.9775 -5.6975 -24.9621 -8.2633 8.7310 -10.1781 -46.0731 25.6608 -0.0000 0.0001 82.0310 12.6712 23.6314 11.5354 0.0000 0.0000 -0.0000 0.0000 -0.0000 -0.0000 -11.5791 5.8671 -6.0702 -17.3177 51.8821 -29.3274 -0.0000 -0.0001 -61.4567 34.9598 -59.1815 -0.1770 0.0000 -0.0000 0.0000 -0.0000 0.0000 0.0000 -21.1530 3.3920 2.8913 36.0656 0.0000 0.0000 8.1446 -7.0833 4.6527 4.2309 0.0000 0.0000 -4.0735 -10.1808 21.9184 7.5763 0.0000 0.0000 2.1111 10.9096 1.0851 -1.2080 0.0000 -0.0000
